<svg xmlns="http://www.w3.org/2000/svg" width="1024" height="1024" viewBox="0 0 1024 1024" role="img" aria-labelledby="title desc">
  <title id="title">ThreatFlix TF Monogram</title>
  <desc id="desc">A sleek 2D silver-gray TF monogram for ThreatFlix on a transparent background.</desc>
  <defs>
    <linearGradient id="silverMain" x1="180" y1="190" x2="840" y2="790" gradientUnits="userSpaceOnUse">
      <stop offset="0" stop-color="#F5F6F7"/>
      <stop offset="0.28" stop-color="#BFC2C5"/>
      <stop offset="0.52" stop-color="#EFEFF0"/>
      <stop offset="0.78" stop-color="#777B80"/>
      <stop offset="1" stop-color="#DADCDD"/>
    </linearGradient>
    <linearGradient id="silverDark" x1="280" y1="760" x2="780" y2="210" gradientUnits="userSpaceOnUse">
      <stop offset="0" stop-color="#50545A"/>
      <stop offset="0.4" stop-color="#B9BCBF"/>
      <stop offset="0.72" stop-color="#F8F9FA"/>
      <stop offset="1" stop-color="#8A8E93"/>
    </linearGradient>
    <filter id="shadow" x="-20%" y="-20%" width="140%" height="140%">
      <feDropShadow dx="0" dy="18" stdDeviation="18" flood-color="#000000" flood-opacity="0.45"/>
    </filter>
  </defs>

  <g transform="translate(0,20)" filter="url(#shadow)">
    <path d="M206 232 L818 232 L765 305 Q752 323 719 323 L298 323 Q266 323 246 299 Z" fill="url(#silverMain)"/>
    <path d="M418 323 H524 Q586 323 617 372 Q641 411 617 455 Q602 484 566 501 V711 L505 653 V480 Q505 420 470 381 Q447 356 418 349 Z" fill="url(#silverDark)"/>
    <path d="M565 379 H775 L724 454 H619 Q590 454 577 477 Q570 488 570 501 V639 H505 V484 Q505 437 529 406 Q543 388 565 379 Z" fill="url(#silverMain)"/>
    <path d="M584 527 H708 L664 594 H584 Z" fill="url(#silverDark)"/>
    <path d="M455 349 H500 Q546 349 573 380 Q538 367 515 381 Q482 400 482 456 V639 L455 611 V469 Q455 406 419 375 Q394 354 348 349 Z" fill="#000000" opacity="0.9"/>
    <path d="M598 454 H724 L697 494 H617 Q592 494 584 527 H562 Q566 485 598 454 Z" fill="#000000" opacity="0.96"/>
    <path d="M226 240 H790 L768 271 H262 Z" fill="#FFFFFF" opacity="0.26"/>
    <path d="M206 232 L818 232 L765 305 Q752 323 719 323 L611 323 Q665 371 628 440 Q615 464 590 484 L590 651 L530 711 L455 634 L455 402 Q455 365 421 349 L298 349 Q265 349 246 325 Z" fill="none" stroke="#F2F3F4" stroke-opacity="0.26" stroke-width="3"/>
  </g>
</svg>
